<svg xmlns="http://www.w3.org/2000/svg" width="400" height="400.56" xmlns:v="https://vecta.io/nano"><path d="M246.35 31.389c-2.741.688-6.568 2.65-6.85 3.51-.122.371-.596 11.027-1.054 23.68-.929 25.668-.808 24.961-5.857 34.418-5.736 10.746-9.675 15.373-31.962 37.535-10.38 10.322-20.31 20.658-22.065 22.969l-10.625 14.371c-28.171 38.541-40.032 46.203-71.859 46.421-28.455.195-34.146 5.383-40.878 37.271-7.768 36.789-4.629 63.593 9.64 82.33 12.075 15.855 23.433 18.771 62.331 16.001 17.291-1.232 35.163-.969 49.86.733 76.507 8.857 121.8.008 135.005-26.376 2.983-5.959 3.039-6.527 1.801-18.173l-1.081-10.168 6.561-6.639c9.232-9.343 10.868-15.589 9.066-34.62l-.581-6.132 3.553-3.766c10.201-10.814 12.119-27.83 4.424-39.264-1.062-1.578-1.731-3.039-1.488-3.248s1.955-1.524 3.804-2.922c10.97-8.297 14.546-16.981 11.807-28.678-4.616-19.708-20.703-23.85-71.191-18.33l-19.458 2.004-4.332.351.256-1.563c.141-.86.538-4.268.884-7.575.581-5.565.909-6.647 4.423-14.592 20.031-45.283 21.411-75.439 4.236-92.562-6.526-6.505-11.998-8.587-18.37-6.986" fill-rule="evenodd"/></svg>