<svg xmlns="http://www.w3.org/2000/svg" viewBox="0 0 25.885 23.764" xmlns:v="https://vecta.io/nano"><path d="M13.081 2.197c-2.035 2.035-2.652 4.947-1.86 7.517L0 20.935v1.414l1.414 1.414h1.415l.707-.707h1.413l1.415-1.414v-1.414L9.192 17.4l.664.707 1.457-1.414 1.414 1.414 1.414-1.414v-2.828l.106-.107c2.913 1.93 6.874 1.611 9.439-.953a7.5 7.5 0 0 0 0-10.607 7.5 7.5 0 0 0-10.605-.001zm9.192 4.949c-.977.977-2.559.977-3.534 0a2.5 2.5 0 0 1-.001-3.535 2.5 2.5 0 0 1 3.536 0 2.5 2.5 0 0 1-.001 3.535z"/></svg>