<svg xmlns="http://www.w3.org/2000/svg" viewBox="0 0 64 64" xmlns:v="https://vecta.io/nano"><path d="M56.195 44.213v5.083a8.176 8.176 0 0 1-5.692 7.849A61.29 61.29 0 0 1 32 60a61.402 61.402 0 0 1-18.374-2.816 8.251 8.251 0 0 1-5.822-7.889v-5.083a8.249 8.249 0 0 1 5.572-7.799 45.687 45.687 0 0 0 6.341-2.766 5.324 5.324 0 0 1 5.302.24 12.777 12.777 0 0 0 13.96 0 5.324 5.324 0 0 1 5.302-.24 46.212 46.212 0 0 0 6.341 2.766 8.236 8.236 0 0 1 5.572 7.799zm-35.579-28.02c-1.166-11 12.868-16.28 20.041-8.478a10.925 10.925 0 0 1 2.726 8.478l-.529 4.803C42.265 26.388 37.762 32.17 32 32.17s-10.265-5.782-10.854-11.174z"/></svg>