<svg xmlns="http://www.w3.org/2000/svg" width="400" height="352.239" xmlns:v="https://vecta.io/nano"><path d="M195.73 1.428c-6.732 1.237-5.677-.474-100.375 162.751C-9.067 344.166-4.765 335.269 6.578 347.761l4.066 4.478h190.351 190.351l4.327-4.606c10.898-11.6 12.975-7.307-87.355-180.469C204.666-11.732 211.623-1.491 195.73 1.428m30.212 143.348c-.739 17.239-3.07 45.224-5.181 62.189l-3.842 32.338c-.002.821-7.168 1.493-15.924 1.493s-15.922-.672-15.924-1.493-1.731-15.373-3.842-32.338-4.442-44.95-5.181-62.189l-1.343-31.343h26.29 26.29l-1.343 31.343m-11.394 127.912c22.473 13.701 6.99 51.307-18.492 44.912-28.664-7.194-24.451-48.928 4.939-48.928 3.831 0 9.93 1.807 13.553 4.016" fill-rule="evenodd"/></svg>