<svg xmlns="http://www.w3.org/2000/svg" width="400" height="400.56" xmlns:v="https://vecta.io/nano"><path d="M155.742 46.847C119.59 49.013 96.63 58.993 87.964 76.308c-2.983 5.959-3.039 6.528-1.801 18.174l1.081 10.168-6.561 6.638c-9.232 9.343-10.868 15.589-9.066 34.62l.581 6.132-3.553 3.766c-10.152 10.762-12.1 27.857-4.467 39.199 1.085 1.614 1.774 3.104 1.531 3.313s-1.955 1.524-3.804 2.922c-10.97 8.297-14.546 16.982-11.807 28.678 4.618 19.719 20.674 23.853 71.191 18.331l19.458-2.005 4.332-.351-.256 1.563c-.141.86-.538 4.269-.884 7.575-.581 5.566-.909 6.647-4.423 14.592-19.952 45.105-21.364 75.64-4.282 92.585 7.456 7.397 13.986 9.191 21.471 5.901 4.141-1.82 3.906-.695 4.62-22.171.912-27.43.91-27.414 4.639-35.17 6.22-12.936 9.689-17.176 32.873-40.18 19.329-19.178 21.033-21.105 31.711-35.852 29.178-40.294 41.245-48.264 73.374-48.459 27.154-.166 32.967-4.739 39.495-31.07 6.617-26.69 7.266-55.682 1.569-70.053-10.674-26.924-26.133-37.296-53.109-35.633l-19.048 1.236c-17.029 1.127-35.851.82-49.86-.814-21.52-2.509-52.898-3.954-67.227-3.096" fill-rule="evenodd"/></svg>