<svg xmlns="http://www.w3.org/2000/svg" viewBox="0 0 416.52 510.02" fill="#030202" xmlns:v="https://vecta.io/nano"><circle cx="268.26" cy="309.95" r="10"/><circle cx="148.26" cy="309.95" r="10"/><path d="M340.13 247.91C452.93 93.23 408.5 11.13 404.89 5a.43.43 0 0 0 0-.07c0-.08-.08-.14-.11-.19l-.24-.34a3.28 3.28 0 0 0-.2-.31c-.18-.24-.37-.48-.56-.7l-.13-.14c-.18-.19-.35-.37-.54-.55l-.11-.06-.11-.09a5.85 5.85 0 0 0-.54-.45l-.21-.17-.64-.43-.2-.12a11.19 11.19 0 0 0-.69-.37l-.35-.16-.47-.19-.37-.14-.5-.15-.34-.09c-.25-.06-.5-.11-.76-.15h-.09a6.86 6.86 0 0 0-.9-.09h-.9-.27l-.66.03h-.29l-.6.11-.31.07h-.09c-41.16 10.58-77.52 35.13-108.06 73-25.19 31.2-41.09 65-50 87.82a29.41 29.41 0 0 1-54.85 0c-8.9-22.84-24.8-56.62-50-87.82C100.3 35.44 64 10.89 22.79.31h-.1l-.31-.09-.59-.11h-.3-.63L20.6 0h-.9a9.57 9.57 0 0 0-1.77.26l-.28.08-.57.17-.32.12c-.18.07-.37.14-.55.23l-.28.14c-.26.13-.53.27-.79.43h0a8 8 0 0 0-.77.52l-.16.12a9.58 9.58 0 0 0-.59.49l-.1.08-.06.07a8.07 8.07 0 0 0-.58.59l-.09.1a7.94 7.94 0 0 0-.58.72c-.06.08-.1.15-.15.23s-.19.27-.28.41l-.14.24h0c-3.51 5.92-48.2 88 64.75 242.91-6.18 9.43-15.34 23.73-24.77 39.52a141.41 141.41 0 0 0 30.61 181 234.67 234.67 0 0 0 67.68 39.64 9.79 9.79 0 0 0 2.13.54 146.67 146.67 0 0 0 19.88 1.39c8.33 0 17.89-.78 26.34-3.41V456l-35.32-18.29a10 10 0 1 1 9.19-17.71l36.13 18.71L244.38 420a10.001 10.001 0 1 1 9.2 17.76L218.26 456v50.6c8.45 2.63 18 3.41 26.33 3.41a146.86 146.86 0 0 0 19.89-1.37 9.7 9.7 0 0 0 2.12-.54 234.67 234.67 0 0 0 67.68-39.64 141.38 141.38 0 0 0 30.61-181c-9.42-15.82-18.58-30.12-24.76-39.55zM148.26 340a30 30 0 1 1 30-30 30 30 0 0 1-30 30zm120 0a30 30 0 1 1 30-30 30 30 0 0 1-30 30zm-55.34 101.09a6.32 6.32 0 0 1 .56.33 6.32 6.32 0 0 0-.56-.33zm5.28 7.76v.34a1.92 1.92 0 0 0 0-.34zm-19.94 1.01v-.65c.02.21 0 .43 0 .65zm19.96-.67v.68c.03-.23.02-.46 0-.68zM203 441.43l.58-.35-.58.35zm-4.71 7.78v-.36z"/></svg>